<?xml version="1.0" standalone="no"?>
<!DOCTYPE svg PUBLIC "-//W3C//DTD SVG 20010904//EN"
 "http://www.w3.org/TR/2001/REC-SVG-20010904/DTD/svg10.dtd">
<svg version="1.0" xmlns="http://www.w3.org/2000/svg"
 width="500.000000pt" height="500.000000pt" viewBox="0 0 500.000000 500.000000"
 preserveAspectRatio="xMidYMid meet">
<metadata>
Created by potrace 1.11, written by Peter Selinger 2001-2013
</metadata>
<g transform="translate(0.000000,500.000000) scale(0.100000,-0.100000)"
fill="#000000" stroke="none">
<path d="M2213 4828 c-6 -7 -16 -33 -23 -58 -15 -57 -91 -134 -141 -144 -36
-7 -171 -24 -256 -33 -48 -4 -54 -2 -90 31 -69 62 -105 66 -187 20 -63 -35
-82 -61 -113 -154 -23 -71 -27 -103 -28 -192 l0 -106 35 -6 c19 -3 50 -8 68
-12 32 -6 32 -6 32 35 0 31 5 44 23 56 21 13 27 12 67 -8 l45 -22 -32 -34
c-17 -19 -47 -61 -65 -93 -18 -33 -38 -70 -45 -81 -10 -19 -58 -44 -87 -46 -5
-1 -6 36 -4 81 8 133 0 136 -362 141 l-175 2 -28 -57 c-15 -31 -27 -67 -27
-79 0 -14 -20 -43 -50 -73 -28 -28 -88 -91 -133 -139 -56 -60 -100 -98 -137
-117 -92 -47 -93 -50 -55 -150 62 -161 118 -335 118 -370 0 -19 -14 -73 -31
-120 -41 -108 -45 -211 -10 -255 18 -24 26 -27 61 -22 25 4 49 15 64 31 13 14
26 26 28 26 49 0 150 -148 121 -177 -3 -3 -55 -16 -116 -29 -61 -13 -115 -26
-121 -29 -14 -10 -40 -77 -35 -92 3 -7 12 -13 21 -13 17 0 75 -55 75 -71 0 -5
13 -22 28 -37 15 -15 28 -29 29 -32 12 -41 26 -58 47 -64 34 -8 33 -20 -6 -47
-18 -12 -38 -28 -44 -35 -6 -8 -49 -15 -120 -18 -60 -3 -132 -8 -161 -12 -50
-5 -53 -4 -59 20 -7 30 11 82 32 90 8 3 14 11 14 17 0 7 7 20 16 30 10 12 17
42 20 88 3 64 2 71 -15 71 -11 0 -55 -33 -98 -74 -71 -67 -84 -86 -145 -207
-67 -132 -98 -213 -98 -256 0 -12 17 -42 38 -67 152 -182 149 -177 151 -253 1
-28 14 -65 41 -116 38 -69 40 -80 34 -126 -6 -49 -5 -52 31 -85 56 -51 161
-100 217 -100 38 -1 52 4 77 28 17 17 31 35 31 42 0 15 50 104 58 104 4 -1 21
-24 37 -52 42 -71 65 -77 116 -31 22 20 38 42 35 49 -3 8 8 17 30 24 18 6 34
16 34 21 0 5 5 8 11 6 6 -1 14 4 16 11 4 10 -5 9 -33 -4 -22 -9 -46 -18 -56
-21 -9 -3 -19 -20 -22 -39 -8 -38 -23 -53 -32 -29 -9 22 11 64 33 72 10 3 30
15 45 25 43 30 80 23 121 -22 39 -41 44 -50 27 -50 -6 0 -27 -11 -48 -23 -20
-13 -49 -27 -63 -30 -15 -4 -51 -23 -80 -43 l-54 -37 52 7 c29 4 71 13 94 21
48 17 68 18 88 6 12 -8 11 -17 -7 -59 -18 -41 -22 -70 -22 -149 0 -85 5 -113
36 -211 36 -111 36 -113 20 -153 -17 -41 -16 -42 6 -68 46 -54 59 -61 108 -61
26 0 64 -7 83 -15 20 -8 57 -15 83 -15 42 0 49 -4 99 -55 33 -35 73 -64 111
-81 32 -14 78 -44 102 -66 39 -36 48 -40 82 -35 81 11 293 136 390 231 36 35
73 66 82 69 20 7 48 -17 48 -41 1 -35 28 -90 80 -162 95 -133 160 -191 228
-204 19 -3 45 -15 59 -26 37 -29 64 -25 102 14 60 62 198 116 297 116 60 0 80
5 141 35 43 21 87 35 110 35 21 1 49 7 63 15 39 22 136 19 176 -5 l33 -21 24
27 c39 42 72 137 86 249 6 48 20 83 52 133 13 20 11 27 -13 70 -18 33 -30 74
-37 129 l-10 81 34 63 c62 114 43 170 -91 264 -31 22 -69 51 -85 64 -22 17
-36 21 -57 17 -25 -6 -24 -5 8 15 19 12 58 40 85 64 50 42 112 68 191 80 38 6
44 11 71 63 56 107 95 173 99 169 2 -2 -9 -29 -26 -60 -16 -31 -30 -59 -30
-62 0 -12 97 -4 124 10 15 8 34 15 41 15 7 0 37 11 67 24 48 21 57 30 72 70
40 105 81 119 185 64 46 -24 63 -40 77 -70 21 -47 40 -48 82 -5 28 29 33 44
43 117 13 96 25 134 38 125 15 -9 23 13 12 32 -9 17 -10 17 -17 -2 -7 -17 -9
-15 -17 15 -4 19 -9 48 -11 64 -2 18 -15 39 -36 56 -18 15 -30 32 -27 37 9 14
56 23 63 12 3 -5 19 -16 36 -25 38 -20 70 -8 121 44 39 41 141 225 130 235 -3
4 -26 7 -50 7 -39 0 -50 6 -95 48 -42 41 -50 53 -51 87 -1 22 2 47 6 55 5 11
2 16 -10 17 -10 1 -30 5 -44 8 -26 7 -169 -40 -169 -55 0 -4 11 -12 25 -18 14
-6 25 -16 25 -22 0 -7 19 -9 58 -4 50 5 60 3 82 -15 l25 -22 -33 16 c-27 13
-39 14 -72 4 -38 -12 -40 -11 -88 29 -99 83 -161 82 -289 -5 -168 -116 -251
-122 -355 -27 -31 28 -46 35 -67 31 -36 -8 -245 -47 -248 -47 -2 0 -3 -8 -3
-17 0 -20 -99 -225 -113 -234 -12 -8 1 -31 13 -24 4 3 14 -2 21 -11 31 -37
103 -56 126 -33 12 12 73 3 73 -10 0 -12 -32 -38 -56 -45 -12 -4 -40 -2 -63 3
-41 9 -41 9 -35 -18 4 -14 16 -41 28 -58 16 -25 26 -31 41 -26 11 4 68 5 128
4 91 -2 116 -6 163 -28 30 -14 53 -27 51 -30 -3 -2 -28 7 -55 21 -44 22 -64
26 -159 27 -104 1 -112 0 -178 -32 -64 -31 -78 -34 -160 -34 -49 1 -99 6 -110
12 -19 11 -18 13 13 23 17 7 32 16 32 20 0 5 14 5 30 0 46 -13 39 18 -15 69
-43 40 -50 61 -20 61 7 0 27 -11 43 -25 l30 -25 -5 22 c-4 18 4 13 35 -21 30
-35 43 -43 58 -36 12 5 15 9 7 12 -7 3 -13 10 -13 18 0 10 -46 124 -54 132 -1
1 -20 -4 -41 -12 -22 -8 -60 -14 -84 -15 -46 0 -55 -7 -113 -94 -26 -38 -28
-39 -28 -15 0 14 9 44 20 67 11 22 20 43 20 46 0 11 -83 47 -96 42 -10 -4 -20
7 -30 34 l-16 40 -20 -22 c-15 -18 -18 -31 -13 -58 19 -99 21 -90 -16 -85 -30
4 -29 3 6 -6 49 -14 48 -13 41 -37 -7 -21 -67 -29 -108 -13 -13 5 -33 5 -46 0
-29 -11 -58 11 -39 30 8 8 7 11 -6 11 -31 0 -17 -31 35 -80 56 -52 94 -64 196
-61 38 1 52 -2 52 -12 0 -13 -26 -27 -107 -57 -34 -13 -68 -54 -58 -70 9 -14
74 -12 128 4 39 12 45 12 40 0 -3 -8 1 -14 10 -14 9 0 23 -3 33 -7 14 -5 16
-2 10 21 -4 18 -3 25 4 21 5 -3 10 -1 10 4 0 6 4 11 10 11 5 0 7 -13 4 -29 -7
-31 5 -46 76 -100 18 -13 35 -33 40 -45 8 -20 8 -20 16 -2 4 10 2 32 -3 47
-14 36 0 38 15 4 28 -62 14 -84 -81 -130 -70 -33 -84 -54 -63 -93 8 -15 19
-37 25 -49 6 -12 20 -27 33 -34 13 -6 41 -28 63 -49 22 -21 58 -50 79 -64 21
-14 35 -26 29 -26 -5 0 -38 21 -72 48 -35 26 -79 57 -98 70 -21 14 -44 44 -59
75 -29 62 -29 74 -6 100 16 20 16 20 -8 13 -36 -10 -134 -24 -139 -20 -2 2 8
8 22 13 14 5 28 15 32 22 9 13 -12 29 -35 28 -66 -5 -91 2 -121 35 -31 35 -31
35 -103 29 -39 -3 -93 -11 -119 -19 -26 -7 -45 -9 -42 -4 3 5 19 11 36 15 16
4 40 18 53 32 14 15 43 29 72 35 81 17 97 16 103 -9 4 -14 25 -32 55 -47 l49
-25 31 23 c17 13 41 27 54 31 22 6 21 8 -19 37 -40 29 -43 29 -123 23 -106 -9
-236 10 -236 34 0 10 6 23 13 30 10 11 8 13 -10 8 -15 -3 -36 4 -60 20 -20 13
-54 26 -76 28 -21 2 -40 5 -42 7 -1 2 2 14 7 28 l10 25 14 -21 c10 -14 22 -20
35 -17 23 6 24 22 5 49 -13 17 -12 22 6 42 21 21 48 29 61 15 4 -3 3 -11 -2
-17 -11 -14 -19 -96 -9 -96 5 0 8 5 8 10 0 14 20 12 52 -4 26 -14 27 -13 33
15 4 16 11 29 16 29 5 0 9 6 9 13 0 18 -56 67 -76 67 -26 0 -56 21 -50 35 9
23 -7 26 -18 2 -7 -12 -19 -22 -29 -22 -23 0 -49 -29 -51 -54 0 -12 -4 -21 -8
-21 -5 0 -12 0 -17 0 -5 0 -14 13 -19 29 -10 29 -9 30 21 33 39 4 77 54 69 93
-4 24 -59 67 -181 142 -19 12 -41 29 -48 38 -13 19 -46 13 -77 -14 -19 -15
-19 -15 -4 7 9 13 14 32 11 43 -4 14 0 19 16 19 17 0 21 6 21 35 0 24 -5 35
-15 35 -8 0 -15 -9 -15 -19 0 -12 -20 -32 -54 -55 -48 -32 -69 -58 -71 -91 0
-9 -92 -8 -107 1 -5 3 -8 -10 -9 -28 0 -18 -4 -42 -9 -53 -7 -15 -9 -9 -9 26
-1 36 -7 54 -28 78 -42 47 -68 40 -91 -24 -6 -16 -11 -24 -11 -17 -1 8 -21 12
-66 12 -147 0 -196 71 -114 164 32 37 32 35 -8 81 -17 18 -16 30 2 45 22 18
44 -2 26 -24 -9 -11 -10 -20 -1 -35 9 -17 15 -19 30 -11 27 14 26 -2 -1 -39
-30 -41 -19 -52 50 -45 l58 7 11 -33 c7 -19 17 -30 24 -27 15 5 14 6 -6 62 -8
22 -15 61 -16 86 l0 46 48 7 c31 4 64 0 97 -10 28 -9 69 -17 92 -18 53 -3 76
-21 63 -47 -13 -23 -68 -22 -75 3 -3 9 -17 24 -32 33 -24 16 -26 16 -46 -3
-18 -19 -22 -19 -43 -5 -29 19 -68 13 -72 -11 -7 -34 19 -104 40 -109 14 -4
18 -11 14 -25 -8 -24 19 -51 28 -27 3 8 10 15 16 15 6 0 8 -5 5 -11 -5 -6 0
-6 12 1 15 10 27 7 67 -14 57 -30 60 -31 52 -10 -8 22 27 86 68 122 20 17 36
37 36 44 0 7 -17 35 -36 62 -33 44 -38 48 -67 42 -81 -16 -80 -16 -76 11 0 3
-6 10 -15 15 -12 7 -14 23 -12 73 2 35 7 69 11 75 13 21 108 60 132 54 14 -4
23 -2 23 5 0 6 -4 11 -9 11 -4 0 2 20 14 45 32 62 42 158 21 190 -9 14 -27 27
-41 31 -16 4 -28 17 -35 40 -6 18 -15 36 -20 39 -18 11 -66 -18 -113 -68 l-49
-52 38 53 c20 30 43 56 51 59 21 8 15 20 -9 19 -14 -1 -23 5 -23 14 0 21 32
24 60 6 13 -9 40 -16 59 -16 37 0 57 -16 32 -26 -19 -7 -21 -30 -3 -36 6 -3
32 -5 57 -7 68 -3 106 -18 140 -58 17 -19 32 -34 34 -32 21 31 37 93 33 125
-20 141 -20 144 -4 144 8 0 35 -21 60 -46 l45 -47 36 28 c19 15 53 29 74 32
33 4 42 2 56 -18 14 -21 21 -19 17 5 -5 28 12 46 44 46 29 0 34 4 40 32 4 17
7 61 7 97 0 46 5 76 18 101 11 19 19 29 20 22 0 -7 -7 -26 -15 -43 -11 -21
-13 -34 -6 -48 13 -24 16 -110 6 -181 -6 -49 -5 -57 14 -74 21 -19 30 -42 11
-31 -5 3 -10 -2 -10 -13 0 -30 22 -86 37 -95 9 -5 10 -14 4 -25 -12 -25 -21
-92 -11 -92 11 0 40 75 40 105 0 13 -4 35 -10 49 -8 23 -7 26 10 26 15 0 22 9
27 32 5 27 7 29 14 13 4 -11 8 -39 8 -62 1 -47 3 -48 32 -32 12 6 42 8 74 4
42 -6 56 -12 61 -27 3 -11 1 -25 -5 -31 -13 -13 -66 -12 -103 4 -40 16 -58 -1
-29 -30 11 -11 23 -32 27 -46 11 -43 80 -26 105 26 15 30 196 219 210 219 22
0 2 -28 -96 -129 -58 -59 -105 -113 -105 -120 0 -6 15 -11 35 -11 24 0 37 -6
45 -20 9 -17 7 -22 -15 -30 -15 -6 -31 -10 -36 -10 -6 0 -15 -13 -20 -29 -6
-15 -21 -33 -34 -39 -26 -12 -36 -54 -12 -50 6 2 11 -5 9 -14 -2 -10 2 -27 9
-39 6 -12 12 -32 14 -46 3 -34 9 -36 47 -20 36 15 108 91 108 114 0 8 -12 13
-33 13 -26 0 -37 -6 -47 -25 -7 -14 -16 -23 -18 -20 -3 3 -11 0 -18 -6 -7 -6
-19 -7 -25 -3 -9 5 -6 10 10 15 19 8 21 15 19 61 -3 51 -2 53 25 56 22 3 27
-1 27 -18 0 -19 4 -20 38 -14 20 4 40 12 45 18 5 7 15 1 28 -16 11 -16 27 -28
35 -28 16 0 19 -16 4 -25 -18 -11 -10 -35 15 -47 21 -10 23 -13 9 -22 -10 -8
-14 -24 -12 -50 l3 -38 35 24 c33 23 43 40 55 100 3 18 26 42 75 77 88 65 120
120 120 213 0 63 27 144 53 160 22 14 62 8 80 -12 21 -25 43 -25 84 0 23 13
35 31 43 61 14 52 22 47 10 -6 -10 -45 -48 -81 -95 -91 -16 -4 -58 -21 -92
-37 -58 -29 -63 -34 -63 -64 0 -34 8 -41 27 -22 18 18 257 16 268 -2 8 -12 -6
-39 -20 -39 -7 0 -15 -7 -19 -15 -3 -8 -16 -15 -28 -15 -13 0 -33 -11 -45 -24
-20 -21 -30 -23 -95 -21 -40 2 -83 6 -95 10 -17 6 -24 1 -36 -22 -17 -31 -64
-78 -114 -112 -25 -17 -33 -30 -33 -52 0 -36 -13 -64 -49 -102 l-26 -29 30 7
c17 4 65 15 107 26 84 21 153 25 163 10 3 -6 64 -9 138 -9 133 1 160 -3 277
-47 35 -13 55 -15 91 -8 33 7 62 6 103 -5 54 -13 60 -13 112 9 31 12 62 32 71
45 8 13 37 37 64 55 60 38 83 32 125 -31 15 -22 28 -40 29 -40 7 0 -26 93 -50
140 -18 35 -29 78 -34 125 -4 46 -14 82 -26 100 -48 67 -55 82 -55 120 0 22
-7 49 -15 59 -9 12 -15 42 -15 74 0 51 -3 57 -36 86 -21 17 -58 50 -83 74 -43
40 -49 43 -86 37 -65 -11 -127 -5 -154 14 -35 24 -121 45 -134 32 -6 -6 -18
-6 -32 1 -30 13 -67 4 -102 -26 -27 -23 -27 -24 -9 -52 10 -17 -1 -9 -29 21
-26 28 -74 79 -108 114 -34 36 -67 73 -72 83 -13 22 -150 137 -201 169 l-36
22 -39 -39 c-21 -21 -39 -45 -39 -55 0 -9 -11 -37 -25 -63 -14 -26 -25 -58
-25 -72 0 -34 -56 -118 -94 -139 -17 -10 -71 -48 -121 -85 -89 -67 -153 -105
-161 -97 -2 2 16 14 41 27 25 13 73 46 108 75 35 29 72 57 84 63 28 15 73 107
73 150 0 43 51 195 82 246 12 22 49 64 81 95 45 43 58 60 54 78 -2 13 0 23 4
23 15 0 10 -44 -7 -70 -10 -14 -36 -45 -59 -70 -108 -115 -132 -203 -29 -108
43 39 48 41 119 45 41 1 94 10 117 19 24 8 64 22 90 30 26 8 50 19 53 24 3 6
19 10 34 10 37 0 53 20 62 78 9 56 -4 131 -32 192 -23 50 -66 100 -85 100 -7
0 -34 -18 -59 -40 -46 -39 -47 -40 -126 -40 -59 0 -90 5 -118 20 -21 10 -59
24 -84 31 -28 6 -76 33 -119 65 -39 30 -80 54 -90 54 -10 0 -30 12 -45 26 -23
23 -25 31 -19 74 6 44 4 50 -15 61 -27 14 -122 7 -196 -16 -57 -17 -108 -69
-83 -85 17 -11 -27 -40 -61 -40 -31 0 -105 -51 -114 -79 -3 -10 -31 -41 -61
-67 -53 -44 -84 -94 -100 -159 l-6 -24 48 15 c26 8 61 13 78 13 25 -1 22 -3
-14 -9 -49 -9 -127 -37 -149 -54 -8 -6 -56 -11 -112 -11 -53 0 -92 3 -86 7 7
4 28 8 47 8 33 0 36 3 53 49 14 40 23 51 46 56 34 7 82 41 157 109 58 53 65
73 34 101 -11 10 -20 29 -20 43 0 28 -126 164 -200 216 -78 54 -175 81 -197
54z m1067 -513 c16 -20 -18 -9 -50 16 l-25 19 32 -11 c17 -6 37 -17 43 -24z
m-498 -74 l31 -28 1 -106 c1 -100 2 -107 28 -134 24 -25 88 -127 88 -139 0
-15 -23 12 -41 49 -12 23 -34 56 -49 72 -38 40 -53 103 -45 185 8 80 -9 108
-71 120 -38 7 -38 8 -7 9 23 1 42 -8 65 -28z m-1057 9 c13 -5 14 -9 5 -9 -8 0
-24 4 -35 9 -13 5 -14 9 -5 9 8 0 24 -4 35 -9z m118 -37 c15 -7 27 -15 27 -18
0 -5 -92 34 -100 42 -8 8 41 -7 73 -24z m329 -32 c29 -14 46 -17 59 -11 31 17
33 11 3 -12 -33 -27 -113 -79 -166 -108 -21 -11 -49 -37 -63 -57 -14 -21 -25
-34 -25 -29 0 5 12 24 26 43 14 19 24 35 23 37 -2 1 -20 10 -39 19 -20 9 -50
35 -66 59 -59 84 -49 80 26 -9 26 -32 40 -29 40 8 0 86 78 112 182 60z m-832
-285 c0 -2 -8 -10 -17 -17 -16 -13 -17 -12 -4 4 13 16 21 21 21 13z m675 -86
c10 -11 16 -20 13 -20 -3 0 -13 9 -23 20 -10 11 -16 20 -13 20 3 0 13 -9 23
-20z m83 -58 c34 -31 40 -43 35 -63 -6 -23 -7 -23 -15 8 -5 18 -25 45 -45 62
-21 17 -33 31 -27 31 6 0 29 -17 52 -38z m-1055 -197 c58 -59 61 -58 41 4 -8
26 59 51 136 51 l59 0 -20 35 c-12 19 -18 40 -16 47 3 8 6 6 6 -5 1 -23 73
-100 128 -137 39 -27 52 -30 121 -30 42 0 82 -4 89 -8 6 -4 12 -30 14 -57 1
-28 6 -59 11 -70 9 -20 9 -20 -6 -1 -9 11 -16 37 -16 58 0 32 -5 40 -31 53
-24 13 -34 14 -45 4 -8 -7 -27 -9 -45 -5 -17 3 -81 -3 -142 -14 -61 -11 -128
-20 -149 -20 -77 0 -163 53 -197 122 -12 24 -33 61 -47 83 l-25 40 38 -45 c21
-24 64 -71 96 -105z m1087 100 c0 -2 -9 -23 -21 -45 -28 -54 -89 -102 -89 -70
0 6 6 10 14 10 18 0 64 55 72 86 5 20 24 35 24 19z m1888 -136 c-3 -8 -7 -3
-11 10 -4 17 -3 21 5 13 5 -5 8 -16 6 -23z m-2230 -257 c6 -9 12 -23 12 -31
-1 -10 -6 -6 -15 10 -8 15 -38 38 -67 53 -29 14 -64 35 -78 46 -14 11 11 2 55
-21 44 -23 86 -49 93 -57z m-1155 3 c-7 -21 -13 -19 -13 6 0 11 4 18 10 14 5
-3 7 -12 3 -20z m-18 -44 c-3 -6 -14 -11 -23 -11 -13 0 -13 2 4 14 21 15 30
14 19 -3z m1334 -111 c-51 -101 -57 -138 -34 -190 10 -22 16 -42 13 -45 -2 -3
-14 19 -26 48 -23 54 -69 94 -97 83 -20 -7 -38 17 -23 32 7 7 19 12 28 13 10
0 11 2 2 6 -18 7 57 64 82 62 36 -2 40 0 65 36 13 19 25 35 27 35 1 0 -15 -36
-37 -80z m-656 -19 c29 -26 60 -53 71 -58 25 -14 85 5 127 40 18 15 40 27 48
26 14 0 14 -1 1 -6 -8 -3 -31 -20 -51 -38 -39 -35 -102 -51 -141 -36 -13 5
-36 27 -52 49 -26 37 -52 55 -101 65 -12 3 -7 5 13 6 27 1 43 -9 85 -48z m324
23 c-3 -3 -12 -4 -19 -1 -8 3 -5 6 6 6 11 1 17 -2 13 -5z m118 -59 l20 -16
-20 10 c-11 5 -29 17 -40 26 l-20 16 20 -10 c11 -5 29 -17 40 -26z m200 -234
c-8 -13 -42 -14 -49 -2 -4 5 2 7 13 4 10 -3 22 0 26 7 4 6 9 9 12 6 3 -2 2 -9
-2 -15z m130 9 c-3 -5 -12 -10 -18 -10 -7 0 -6 4 3 10 19 12 23 12 15 0z
m-1225 -119 c0 -5 18 -14 40 -21 22 -7 57 -28 78 -45 20 -18 51 -36 67 -42 19
-6 31 -17 33 -31 2 -12 0 -22 -3 -22 -4 0 -33 23 -65 51 -32 28 -86 64 -119
79 -34 16 -61 34 -61 39 0 6 7 8 15 5 8 -4 15 -9 15 -13z m261 -4 c-10 -9 -11
-8 -5 6 3 10 9 15 12 12 3 -3 0 -11 -7 -18z m3556 -319 c-3 -7 -5 -2 -5 12 0
14 2 19 5 13 2 -7 2 -19 0 -25z m-2560 -40 c-3 -8 -6 -5 -6 6 -1 11 2 17 5 13
3 -3 4 -12 1 -19z m2539 -6 c-17 -16 -18 -16 -5 5 7 12 15 20 18 17 3 -2 -3
-12 -13 -22z m-3193 -59 c-7 -2 -19 -2 -25 0 -7 3 -2 5 12 5 14 0 19 -2 13 -5z
m67 -9 c0 -2 -7 -4 -15 -4 -8 0 -15 4 -15 10 0 5 7 7 15 4 8 -4 15 -8 15 -10z
m890 -8 c0 -2 -13 -6 -29 -8 -17 -2 -28 -1 -25 4 5 8 54 12 54 4z m45 -14 c-3
-3 -11 0 -18 7 -9 10 -8 11 6 5 10 -3 15 -9 12 -12z m-390 -2 c19 -9 19 -9 -2
-16 -32 -9 -29 -24 5 -25 26 0 25 -1 -8 -13 -30 -10 -41 -9 -79 6 -24 10 -67
22 -95 27 -46 8 -43 8 29 6 57 -2 86 1 100 11 21 16 22 16 50 4z m-1009 -39
c-9 -16 -16 -37 -16 -46 0 -31 -46 -65 -87 -65 -64 1 -246 36 -281 54 -19 10
-41 15 -50 12 -14 -5 -14 -4 1 8 14 10 27 12 50 5 48 -14 84 -11 91 7 3 8 11
12 17 8 6 -3 15 -1 20 7 6 11 19 8 66 -14 42 -20 71 -27 106 -26 47 2 50 4 70
45 11 24 23 42 25 40 2 -2 -4 -18 -12 -35z m714 -16 c0 -2 -13 -11 -30 -20
-38 -19 -40 -11 -2 9 31 17 32 18 32 11z m450 -16 c0 -5 -20 -29 -45 -53 -25
-25 -45 -53 -45 -65 0 -12 -5 -21 -10 -21 -11 0 -59 50 -60 62 0 13 41 19 55
8 20 -16 73 25 81 62 6 25 24 30 24 7z m68 -25 c-7 -15 -14 -21 -16 -15 -2 7
2 18 8 26 18 22 21 18 8 -11z m-368 -25 c0 -11 -4 -17 -10 -14 -5 3 -10 13
-10 21 0 8 5 14 10 14 6 0 10 -9 10 -21z m2066 -34 c25 -19 15 -19 -27 0 -25
10 -29 14 -13 15 11 0 29 -7 40 -15z m31 -92 c-3 -10 -5 -2 -5 17 0 19 2 27 5
18 2 -10 2 -26 0 -35z m-10 -65 c-3 -8 -6 -5 -6 6 -1 11 2 17 5 13 3 -3 4 -12
1 -19z m-16 -45 c-12 -20 -14 -14 -5 12 4 9 9 14 11 11 3 -2 0 -13 -6 -23z
m-1666 -40 c-5 -21 -7 -48 -6 -60 1 -11 -2 -24 -7 -27 -11 -6 -9 49 3 102 11
45 19 32 10 -15z m301 -5 l-6 -31 22 19 c15 13 12 7 -8 -18 -33 -43 -42 -34
-24 23 16 47 25 51 16 7z m-126 -79 c35 -18 60 -39 47 -39 -2 0 -31 13 -63 30
-32 16 -51 30 -42 30 10 0 36 -9 58 -21z m489 -15 c31 -25 33 -44 6 -44 -7 0
-27 11 -43 25 -16 13 -33 21 -38 17 -4 -4 -2 1 5 11 18 23 34 22 70 -9z m-689
-44 c0 -16 -4 -30 -10 -30 -5 0 -8 10 -6 23 3 12 5 25 5 30 2 21 11 3 11 -23z
m592 -4 c-9 -19 -19 -30 -20 -25 -4 10 24 59 33 59 3 0 -3 -15 -13 -34z m122
-92 c17 -66 10 -128 -17 -151 l-22 -18 19 22 c16 19 18 33 13 90 -3 38 -9 79
-13 93 -4 14 -4 22 0 19 4 -4 13 -29 20 -55z m-1352 17 l37 -15 -42 -38 c-23
-22 -36 -37 -29 -33 6 3 12 1 12 -4 0 -6 3 -10 8 -10 18 3 32 -2 32 -12 0 -6
-9 -8 -20 -4 -12 4 -20 2 -20 -5 0 -6 5 -8 10 -5 6 3 10 -1 10 -9 0 -9 -7 -16
-15 -16 -8 0 -15 -9 -15 -20 0 -32 2 -35 20 -32 14 2 17 -4 16 -29 -1 -19 -8
-35 -16 -37 -8 -3 -22 -13 -31 -23 -9 -10 -19 -16 -23 -12 -3 3 -6 -1 -6 -9 0
-15 -56 -66 -101 -93 -51 -31 -159 -109 -159 -115 0 -4 -11 -12 -25 -18 -24
-11 -26 -9 -42 27 -15 35 -22 41 -63 48 -39 7 -45 11 -45 33 0 14 -8 32 -17
41 -23 21 -23 39 4 94 l22 46 61 -2 c128 -3 240 41 293 116 17 25 32 52 32 61
0 28 54 99 70 92 3 -2 22 -9 42 -17z m32 -176 c-4 -8 -10 -15 -14 -15 -4 0
-10 7 -14 15 -4 10 1 15 14 15 13 0 18 -5 14 -15z m1282 -46 c-3 -17 -1 -40 6
-52 7 -12 13 -29 14 -37 2 -8 22 -32 46 -54 24 -21 61 -55 82 -75 l40 -36 -28
50 c-37 64 -61 90 -97 106 -16 6 -28 13 -26 15 8 8 73 -25 94 -48 30 -33 76
-115 92 -165 11 -35 12 -56 2 -115 -14 -83 -14 -84 -111 -198 l-73 -85 6 39
c4 25 18 51 38 73 32 32 35 59 4 33 -25 -20 -17 -4 13 27 84 89 99 112 100
158 1 25 -4 58 -12 73 -16 30 -72 89 -134 140 -46 37 -75 106 -65 153 3 16 8
29 11 29 2 0 2 -14 -2 -31z m-1019 -235 c6 -15 7 -15 18 -1 10 14 12 11 12
-18 0 -19 -5 -33 -11 -32 -6 1 -10 -9 -8 -22 3 -16 0 -21 -9 -15 -9 5 -10 2
-6 -10 9 -22 -60 -116 -85 -116 -9 0 -19 -4 -22 -9 -9 -14 -42 -2 -71 25 -20
19 -24 29 -19 51 6 26 35 63 49 63 3 0 17 12 31 28 14 15 29 27 32 27 22 2 51
18 56 30 7 20 25 19 33 -1z m453 -103 c0 -25 -39 -96 -47 -87 -3 3 4 22 17 43
15 26 20 46 16 68 -4 22 -3 26 4 15 5 -8 10 -26 10 -39z m-43 -153 c-3 -7 -5
-2 -5 12 0 14 2 19 5 13 2 -7 2 -19 0 -25z m33 -174 c5 -13 21 -28 34 -34 13
-5 26 -14 28 -21 3 -8 26 -12 71 -12 l67 2 0 -56 c0 -44 -7 -67 -31 -109 -32
-57 -40 -61 -78 -40 -14 8 -32 11 -40 8 -9 -3 -12 -1 -7 6 5 8 0 12 -13 12
-16 0 -21 6 -21 26 0 28 -6 34 -63 78 -36 26 -38 31 -32 65 4 20 13 39 20 43
7 4 18 21 25 38 14 33 26 31 40 -6z"/>
<path d="M2683 3414 c-24 -14 -43 -28 -43 -32 1 -4 12 -20 25 -37 21 -25 25
-27 31 -12 3 9 11 17 18 17 13 0 57 76 48 84 -11 12 -38 5 -79 -20z"/>
<path d="M2880 3306 c0 -14 5 -26 10 -26 6 0 10 9 10 19 0 11 -4 23 -10 26 -6
4 -10 -5 -10 -19z"/>
<path d="M2505 3267 c-29 -70 -13 -94 19 -27 15 31 17 43 8 52 -9 9 -15 3 -27
-25z"/>
<path d="M2314 3255 c4 -15 10 -40 13 -56 3 -16 19 -41 36 -55 l31 -26 29 32
c51 57 21 108 -77 126 -39 7 -39 7 -32 -21z"/>
<path d="M2527 3138 c-17 -30 -20 -31 -32 -15 -12 17 -14 15 -24 -15 -6 -18
-15 -52 -20 -76 -9 -42 -9 -43 10 -26 10 9 19 28 19 41 0 15 6 23 18 23 24 1
54 45 50 75 -3 25 -3 24 -21 -7z"/>
<path d="M2892 3137 c-28 -30 -28 -37 3 -37 21 0 25 5 25 30 0 36 -1 36 -28 7z"/>
<path d="M2300 3100 c0 -5 4 -10 9 -10 6 0 13 5 16 10 3 6 -1 10 -9 10 -9 0
-16 -4 -16 -10z"/>
<path d="M3120 3090 c0 -5 5 -10 11 -10 5 0 7 5 4 10 -3 6 -8 10 -11 10 -2 0
-4 -4 -4 -10z"/>
<path d="M2560 3060 c-12 -8 -12 -10 4 -16 11 -4 24 0 34 10 15 15 15 16 -3
16 -11 0 -27 -4 -35 -10z"/>
<path d="M2327 3053 c-4 -3 -7 -13 -7 -21 0 -12 3 -12 15 -2 8 7 15 16 15 21
0 11 -14 12 -23 2z"/>
<path d="M2370 3006 c-14 -8 -32 -26 -40 -41 -13 -24 -31 -36 -93 -67 -10 -5
-26 -6 -36 -3 -10 3 -24 -1 -31 -10 -16 -19 -5 -29 92 -79 l68 -36 -27 48 -27
48 23 37 c24 40 51 49 51 18 0 -32 11 -51 30 -51 11 0 22 -4 25 -10 3 -5 15
-10 26 -10 11 0 38 -9 59 -20 33 -17 40 -18 40 -6 0 8 -5 18 -11 22 -6 3 -8
17 -5 30 5 19 0 26 -23 39 -17 8 -44 15 -61 15 -31 0 -38 8 -19 27 10 10 2 63
-10 63 -3 -1 -17 -7 -31 -14z"/>
<path d="M2643 2995 l-22 -12 33 -35 c18 -19 36 -42 38 -49 4 -11 8 -11 18 -2
10 9 8 16 -9 34 -11 13 -21 33 -21 45 0 29 -9 34 -37 19z"/>
<path d="M2763 2968 c-7 -9 -5 -22 7 -41 l18 -28 21 28 c21 26 21 28 5 40 -22
16 -39 16 -51 1z"/>
<path d="M3024 2965 c-16 -13 -17 -16 -4 -25 21 -14 27 -13 34 7 10 24 -7 35
-30 18z"/>
<path d="M3370 2955 c0 -8 5 -15 10 -15 6 0 10 7 10 15 0 8 -4 15 -10 15 -5 0
-10 -7 -10 -15z"/>
<path d="M2944 2906 c-3 -8 -18 -19 -34 -25 -26 -8 -29 -7 -33 12 -3 20 -4 20
-11 5 -19 -42 34 -81 80 -59 21 9 24 14 15 25 -8 10 -9 16 -1 21 13 8 13 35 0
35 -6 0 -13 -6 -16 -14z"/>
<path d="M3298 2853 c-12 -16 -29 -28 -35 -29 -7 -1 -22 -2 -34 -2 -14 -2 -19
-7 -15 -17 3 -8 -1 -18 -8 -22 -7 -5 -15 -16 -19 -25 -5 -15 -9 -16 -36 -2
-26 13 -34 13 -73 -1 -23 -8 -50 -15 -58 -15 -17 0 -60 -42 -60 -59 0 -36 -86
42 -98 89 -7 30 -12 35 -46 38 -20 2 -51 -1 -67 -7 -24 -8 -36 -7 -55 6 -14 9
-24 12 -22 7 1 -5 -4 -25 -12 -44 -7 -19 -14 -39 -15 -45 -2 -19 -30 -55 -42
-55 -20 0 -26 20 -11 37 11 14 10 16 -14 11 -19 -3 -28 -1 -28 7 0 7 -11 16
-25 19 -14 4 -25 10 -25 15 0 5 -13 14 -29 21 -16 6 -32 18 -35 26 -5 13 -10
12 -31 -3 -27 -20 -32 -54 -11 -75 7 -8 16 -24 20 -36 12 -38 178 -91 188 -60
8 23 28 -4 28 -37 0 -33 -1 -34 -32 -29 -18 3 -39 8 -46 10 -11 3 -12 -5 -8
-33 4 -21 2 -45 -4 -53 -8 -13 -10 -13 -10 2 0 24 -16 31 -52 23 l-31 -7 24
-20 c57 -46 70 -52 79 -39 12 21 49 3 56 -27 13 -54 57 -79 83 -48 10 11 8 16
-8 21 -14 4 -21 15 -21 33 0 15 -11 40 -24 57 l-24 29 40 18 c22 10 53 18 69
18 28 0 29 1 29 50 0 31 8 66 20 91 l21 40 44 -37 c39 -31 45 -42 45 -74 0
-49 17 -54 51 -16 24 27 30 29 48 19 12 -7 35 -13 52 -13 22 0 30 -4 26 -14
-3 -7 8 -29 24 -49 l29 -35 -17 -45 c-9 -24 -13 -51 -10 -60 3 -9 36 -25 77
-38 75 -23 139 -21 191 6 49 26 139 154 139 197 0 33 -57 78 -98 78 -65 0
-119 37 -77 54 11 4 13 11 6 29 -8 21 -5 25 27 36 62 22 82 39 82 70 0 37 -6
41 -43 30 -21 -6 -33 -5 -35 1 -6 18 -30 10 -54 -17z"/>
<path d="M659 2840 l-24 -19 48 -1 c49 0 61 12 28 30 -26 13 -25 13 -52 -10z"/>
<path d="M4720 2845 c-8 -10 -8 -14 2 -17 11 -4 11 -8 0 -20 -14 -17 -9 -21
51 -38 32 -10 34 -2 7 44 -24 40 -44 50 -60 31z"/>
<path d="M3008 2823 c-9 -41 2 -53 48 -53 24 0 44 4 44 10 0 8 -72 60 -84 60
-2 0 -6 -8 -8 -17z"/>
<path d="M4090 2729 c-41 -4 -107 -18 -147 -31 -103 -32 -83 -46 59 -40 105 4
117 6 166 35 82 49 73 53 -78 36z"/>
<path d="M2450 2585 c-21 -25 3 -42 35 -25 23 12 23 14 7 26 -22 17 -27 17
-42 -1z"/>
<path d="M2805 2554 c-19 -15 -19 -15 10 -8 37 8 57 24 30 24 -11 0 -29 -8
-40 -16z"/>
<path d="M2900 2486 c-5 -15 -10 -32 -10 -37 0 -5 -7 -21 -16 -34 -14 -22 -14
-25 -1 -25 18 0 39 24 35 41 -2 9 4 13 15 11 15 -3 17 2 11 25 -10 43 -22 49
-34 19z"/>
<path d="M3071 2474 c0 -11 3 -14 6 -6 3 7 2 16 -1 19 -3 4 -6 -2 -5 -13z"/>
<path d="M2760 2376 c0 -10 5 -14 10 -11 6 3 10 0 10 -8 0 -17 31 -32 39 -19
3 5 14 11 24 15 23 8 22 27 -2 27 -10 0 -33 3 -50 6 -25 5 -31 3 -31 -10z"/>
<path d="M3350 2226 c0 -2 7 -9 15 -16 13 -11 14 -10 9 4 -5 14 -24 23 -24 12z"/>
<path d="M3387 2169 c4 -13 8 -18 11 -10 2 7 -1 18 -6 23 -8 8 -9 4 -5 -13z"/>
<path d="M4270 1932 c0 -5 23 -19 50 -32 78 -37 83 -50 19 -52 -30 0 -68 -1
-86 -2 -44 -1 -48 -9 -29 -56 18 -45 13 -167 -8 -195 -6 -8 -43 -19 -86 -26
-41 -6 -97 -21 -123 -32 -41 -18 -47 -24 -41 -42 4 -11 8 -39 9 -61 1 -34 12
-56 58 -115 31 -41 62 -79 69 -85 38 -34 127 -167 144 -214 11 -33 15 -35 60
-38 32 -2 71 5 118 21 39 14 96 31 126 38 30 7 58 18 62 24 4 5 8 33 8 61 0
28 6 59 15 70 8 10 15 36 15 56 0 41 21 68 52 68 24 0 185 153 199 188 6 15 3
38 -8 70 -9 26 -20 63 -24 82 -10 44 -39 129 -69 198 -18 41 -27 51 -39 46
-32 -13 -87 -24 -126 -24 -31 0 -49 -8 -80 -35 -22 -19 -47 -35 -56 -35 -9 0
-28 18 -43 40 -16 24 -45 49 -76 65 -48 24 -110 34 -110 17z"/>
</g>
</svg>
